<?xml version="1.0" encoding="UTF-8"?><svg id="Layer_2" xmlns="http://www.w3.org/2000/svg" xmlns:xlink="http://www.w3.org/1999/xlink" viewBox="0 0 287.5 154.35"><defs><style>.cls-1{fill:none;}.cls-2{fill:#fff;}.cls-3{clip-path:url(#clippath);}</style><clipPath id="clippath"><rect class="cls-1" width="287.5" height="154.35"/></clipPath></defs><g id="Layer_1-2"><g class="cls-3"><path class="cls-2" d="M183.93,54.98c-8.36-.16-10.63-7.27-10.59-15.27.04-8.05,5.88-14.99,14.36-15,6.18.93,11.43,4.02,16.53,13.28,3.09,11.43-11.96,17.15-20.3,16.99M227.01,15.99V.59c-9.65-1.69-18.28-.27-24,11.14-19.93-5.48-34.91-1.48-43.27,11.57-6.37,9.95-7.62,25.7,4.32,38.38-1.28,1.22-2.38,2.14-3.32,3.2-5.3,5.92-7.33,12.75-4.91,20.44,2.24,7.1,7.64,10.71,14.71,12.26,2.38.52,4.74.68,7.14.69,6.4.02,12.81.15,19.21-.03,6.54-.19,12.13,1.07,14.47,8.31,3.28-.87,6.2-1.62,9.11-2.43,2.88-.8,5.9-1.23,8.56-2.57-.98-9.01-7.68-16.5-16.81-19.16-3.38-.99-6.89-1.31-10.44-1.29-7.2.06-14.41.04-21.61-.03-3.07-.03-5.85-1.09-7.01-4.12-1.17-3.07.19-5.58,3.07-7.78,13.98,3.23,27.5,2.04,37.53-9.74,10.22-12.01,9.37-25.16,1.49-38.05,1.94-6.2,7.55-4.32,11.78-5.39"/><path class="cls-2" d="M127.66,39.38c-.07,7.83-3.55,13.93-14.83,14.47-8.5,0-14.82-6.21-14.64-14.38.09-11.63,10.17-15.47,18.68-15.36,8.34.1,10.48,11.12,10.79,15.28M152.03,16.01c.06-5.39.43-10.55-.22-15.61-10.45-1.27-18.36.22-23.98,11.5-5.68-2.12-11.57-3.41-17.72-2.87-12.58,1.1-22.5,6.61-27.62,18.46-5.07,11.72-3.32,22.83,5.15,32.65.5.58,1.26,1.06.5,1.76-1.22,1.03-2.12,2.37-3.17,3.59-9.54,11.14-6.17,28.81,10.29,32.07,2.54.51,5.06.7,7.62.71,6.4.02,12.81.14,19.21-.03,6.4-.16,11.8,1.17,14.07,8.35,6.12-1.65,11.94-3.23,17.9-4.84-1.67-9.04-6.46-15.15-14.65-18.52-4.05-1.66-8.33-2.15-12.69-2.13-7.36.02-14.73.05-22.09-.08-3.07-.05-5.79-1.29-6.76-4.43-.96-3.14.52-5.54,3.29-7.47,15.48,3.56,29.65,1.53,39.39-12.27,8.17-11.57,6.82-23.79-.5-35.41,1.9-6.22,7.45-4.45,11.97-5.44"/><path class="cls-2" d="M54.95,38.77H19.85c1.72-9.76,10.45-14.1,17.15-14.27,8.41-.22,15.36,5.17,17.95,14.27M72.83,34.62c-4.93-16.48-19.32-26.25-37.76-25.61-15.37.53-28.94,10.79-33.38,25.23-4.73,15.39.67,31.83,13.44,40.97,15.26,10.91,38.14,9.69,52.07-2.81,1.27-1.14,2.65-2.23,3.5-4.04-3.87-3.37-7.57-6.59-11.46-9.98-6.28,6.11-13.44,9-21.93,8.34-8.92-.7-16.31-6.81-17.11-14.53h53.75c.9-6.33.53-11.98-1.14-17.56"/><path class="cls-2" d="M241.42,12.74c-7.81,4.15-11.66,10.55-11.33,19.51.32,8.67,5.31,13.7,12.69,16.97,3.07,1.36,6.32,2.23,9.59,3.02,3.72.91,7.47,1.77,11.1,2.98,4.32,1.44,6.31,3.84,5.98,6.54-.32,2.67-2.96,4.81-7.02,5.67-.31.07-.63.11-.95.14-7.92.95-15.28-.46-21.91-5.1-1.01-.71-1.83-1.78-3.4-1.87-2.78,3.57-5.65,7.16-7.98,11.09,7.66,8.09,20.89,11.23,29.99,10.92,6.93-.23,13.67-1.46,19.65-5.38,6.75-4.42,9.91-10.72,9.63-18.68-.29-8.05-4.68-13.37-11.78-16.67-4.23-1.96-8.73-3.07-13.26-4.09-3.74-.85-7.56-1.46-11-3.27-2.12-1.11-3.56-2.75-3.29-5.35.24-2.39,1.87-3.7,3.91-4.42,3.04-1.08,6.18-1.36,9.44-1.07,5.85.52,10.92,3.05,15.96,6.14,2.91-4.01,5.62-7.75,8.32-11.46-11.27-10.37-32.14-12.14-44.37-5.64"/><path class="cls-2" d="M280.25,129.96c-4.17-.01-8.2-.02-12.23-.04.62-7.17,10.68-5.98,12.23.04M287.1,134.64c.02-6.66-2.04-12.35-8.83-14.61-6.69-2.22-14.58,1.21-16.78,8.13-4.64,14.6,15.16,22.82,24.37,12.25-1.42-1.24-2.74-2.41-4.04-3.55-5.86,4.56-12.73,3.42-13.88-2.27,6.31.02,12.6.04,19.16.05"/><path class="cls-2" d="M93.46,129.42c-4.18-.01-8.21-.02-12.25-.03,1.02-6.82,10.84-6.34,12.25.03M75.85,125.23c-8.26,14.28,13.66,27.22,23.22,14.62-1.4-1.23-2.7-2.37-3.97-3.48-6.21,4.4-13.27,3.21-13.83-2.31,6.25.02,12.5.04,18.82.05,2.82-14.05-17.19-21.07-24.23-8.89"/><path class="cls-2" d="M147.26,129.57c-4.18-.01-8.21-.02-12.25-.04.95-6.88,10.8-6.28,12.25.04M154.14,134.24c.02-6.6-2.01-12.23-8.71-14.54-6.66-2.29-14.6,1.06-16.87,7.96-4.81,14.61,15.09,23.03,24.33,12.38-1.43-1.26-2.76-2.42-4.07-3.57-5.97,5.52-13.44,2.27-13.81-2.28,6.3.02,12.59.04,19.13.05"/><path class="cls-2" d="M222.2,132.27c-.11,8.86-13.69,8.73-13.61-.18.08-8.91,13.72-8.68,13.61.18M228.66,132.17c0-16.84-26.51-16.82-26.59-.05-.07,16.89,26.59,17.03,26.59.05"/><path class="cls-2" d="M177.88,147.06c3.66,2.14,5.25,1.42,6.89-3.06-3.26-7.94-6.56-15.99-9.93-24.21,2.46,0,4.74.01,7.13.02,2.08,5.45,4.16,10.9,6.24,16.34.11,0,.22.02.34.03,2.1-5.45,4.2-10.9,6.31-16.37,2.3,0,4.48.01,6.83.02-2.75,8.93-7.3,17.63-10.97,26.23-2.76,6.48-8.49,11.58-15.15,5.69.74-1.5,1.49-3.04,2.3-4.69"/><path class="cls-2" d="M233.11,144.54c2.09,0,4.04.01,6.16.02.02-5.36-2.71-18.56,5.3-19.14,8.92-.64,6,13.78,5.99,19.16,2.16,0,4.15.01,6.3.02.02-6.08,2.03-16.49-1.78-21.71-3.69-5.04-11.35-4.32-15.61-.54-.1-.92-.18-1.63-.26-2.4-2.06,0-4-.01-6.02-.02-.02,8.36-.05,16.49-.07,24.61"/><path class="cls-2" d="M114.48,136.19c2.08-5.4,4.15-10.8,6.26-16.29,2.26,0,4.48.01,6.99.02-3.45,8.25-6.85,16.55-10.27,24.74-2.13,0-4.26-.01-6.57-.02-3.34-8.11-6.72-16.47-10.16-24.82,2.44,0,4.67.01,7.13.02,2.07,5.41,4.16,10.9,6.26,16.38.12-.01.23-.02.35-.03"/><path class="cls-2" d="M165,122.97c-.08-1.21-.14-2.03-.19-2.88-2.11,0-4.06-.01-6.1-.02-.02,8.24-.05,16.39-.07,24.57,2.08,0,4.07.01,6.21.02.01-4.33-.86-10.15.38-14.32,1.12-3.76,4.35-4.09,7.82-4.29,0-2.18.01-4.2.02-6.4-3.26-.26-5.8.9-8.06,3.32"/><path class="cls-2" d="M17.72,119.94c-2.12-.34-4.11.09-6.02-.3-.26-.49-.2-.95-.19-1.39.05-2.43,1.13-3.47,3.55-3.51,1.07-.02,2.05.34,3.14.64.05-1.86.14-3.6-.03-5.28-2.55-1.35-6.25-1.46-8.72-.3-1.6.75-2.72,1.95-3.42,3.58-.62,1.44-.68,2.95-.76,4.47-.03.6.18,1.25-.41,1.95-1.03,0-2.19,0-3.38,0,0,1.99,0,3.81-.01,5.62,1.27.28,2.47-.08,3.82.34-.02,6.21-.04,12.43-.05,18.76,2.16.04,4.1.12,6.24-.04.02-6.31.04-12.53.05-18.98,2.19,0,4.18.01,6.19.02,0-1.96.01-3.69.02-5.56"/><path class="cls-2" d="M61.1,126.31c-2.81.8-4.58,2.76-4.7,5.67-.14,3.48-.08,6.98-.13,10.47,0,.67.1,1.34-.16,2.13-1.96.2-3.95.09-6.04.04.02-8.22.04-16.35.07-24.65,2.03-.12,4.01-.08,5.92-.01.53.92.04,1.82.52,2.77,2.13-2.27,4.67-3.44,7.88-3.15,0,2.13-.01,4.18-.02,6.32-1.22.26-2.3.1-3.34.4"/><path class="cls-2" d="M39.2,132.31c-.04,3.9-3.04,6.85-6.9,6.78-3.9-.06-6.75-3.02-6.71-6.96.03-3.9,3.01-6.83,6.89-6.79,3.87.04,6.76,3.04,6.72,6.96M45.66,132.29c.04-7.39-5.55-12.95-13.08-13.02-7.67-.07-13.39,5.35-13.49,12.8-.1,7.39,5.6,13.08,13.18,13.16,7.55.08,13.35-5.52,13.39-12.93"/><path class="cls-2" d="M11.7,119.64c-.26-.49-.2-.95-.19-1.39.05-2.43,1.13-3.47,3.55-3.51,1.07-.02,2.06.35,3.14.64.05-1.87.14-3.6-.03-5.28-2.55-1.35-6.25-1.46-8.72-.3-1.6.75-2.72,1.95-3.42,3.58-.62,1.44-.68,2.95-.76,4.46-.03.6.17,1.24-.41,1.96-1.03,0-2.19,0-3.39,0,0,1.99-.01,3.81-.02,5.62,1.27.28,2.47-.08,3.82.34-.02,6.22-.04,12.44-.05,18.76,2.16.04,4.1.12,6.24-.04.02-6.31.03-12.53.05-18.98,2.19,0,4.18.01,6.19.02,0-1.96,0-3.7.02-5.56-2.12-.34-4.11.09-6.02-.3"/><path class="cls-2" d="M64.44,125.92c-1.22.25-2.3.1-3.34.4-2.81.8-4.58,2.76-4.7,5.67-.14,3.48-.09,6.98-.13,10.47,0,.67.11,1.35-.16,2.13-1.96.2-3.95.09-6.04.04.02-8.22.05-16.35.07-24.65,2.03-.12,4.01-.08,5.92-.01.53.92.03,1.83.52,2.77,2.12-2.27,4.67-3.44,7.88-3.15,0,2.13-.01,4.19-.02,6.33"/></g></g></svg>